<?xml version="1.0" encoding="utf-8"?>
<!-- Generator: Adobe Illustrator 24.1.1, SVG Export Plug-In . SVG Version: 6.00 Build 0)  -->
<svg version="1.1" id="Capa_1" xmlns="http://www.w3.org/2000/svg" xmlns:xlink="http://www.w3.org/1999/xlink" x="0px" y="0px"
	 viewBox="0 0 500 100" style="enable-background:new 0 0 500 100;" xml:space="preserve">
<style type="text/css">
	.st0{fill-rule:evenodd;clip-rule:evenodd;}
</style>
<path class="st0" d="M47.3,35.3v38.8L62,66.9v-23L47.3,35.3z M40.9,20.8v56.3l-9.4,4.6l-9.4-4.6V31.7L40.9,20.8z M15.9,35.3V74
	L1.1,66.8v-23L15.9,35.3z"/>
<path d="M486.8,55.6c1.9,0,3.4-0.5,4.4-1.6c1.1-1.1,1.6-2.5,1.6-4.2c0-1.8-0.5-3.2-1.6-4.2c-1.1-1-2.5-1.6-4.4-1.6h-16.3v11.6H486.8
	z M470.5,60.8v8.5h-5.3V38.6h21.6c1.8,0,3.4,0.3,4.8,0.8c1.4,0.5,2.6,1.3,3.5,2.2c1,1,1.7,2.1,2.2,3.4c0.5,1.4,0.8,2.9,0.8,4.6
	c0,1.7-0.3,3.2-0.8,4.5c-0.5,1.4-1.2,2.5-2.2,3.5c-1,1-2.1,1.8-3.5,2.3c-1.4,0.5-3,0.8-4.8,0.8H470.5z"/>
<path d="M455,38.6h5.2v17.2c0,2.4-0.3,4.4-0.9,6.2c-0.6,1.8-1.6,3.2-2.9,4.4c-1.3,1.2-3,2-5.1,2.6c-2.1,0.6-4.6,0.8-7.6,0.8
	c-3,0-5.5-0.3-7.6-0.8c-2.1-0.6-3.8-1.4-5.1-2.6c-1.3-1.2-2.3-2.6-2.9-4.4c-0.6-1.8-0.9-3.8-0.9-6.2V38.6h5.5v17.2
	c0,1.6,0.2,2.9,0.6,4c0.4,1.1,1,2,1.9,2.7c0.9,0.7,2,1.2,3.4,1.5c1.4,0.3,3.2,0.5,5.3,0.5c2.1,0,3.9-0.2,5.3-0.5
	c1.4-0.3,2.6-0.8,3.4-1.5c0.9-0.7,1.5-1.6,1.9-2.7c0.4-1.1,0.6-2.4,0.6-4V38.6z"/>
<path d="M395.7,63.9c1.4,0,2.7-0.2,3.8-0.8c1.2-0.5,2.2-1.2,3-2.1c0.9-0.9,1.5-2,2-3.2c0.5-1.2,0.7-2.6,0.7-4c0-1.4-0.2-2.8-0.7-4
	c-0.5-1.2-1.1-2.3-2-3.1c-0.9-0.9-1.9-1.6-3-2.1c-1.2-0.5-2.4-0.7-3.8-0.7h-12.5v20H395.7z M377.9,69.3V38.6h17.8
	c2.2,0,4.2,0.4,6,1.1c1.8,0.7,3.4,1.8,4.7,3.1c1.3,1.3,2.4,2.9,3.1,4.8c0.7,1.8,1.1,3.9,1.1,6.1c0,2.2-0.4,4.3-1.1,6.2
	c-0.8,1.9-1.8,3.6-3.1,5c-1.3,1.4-2.9,2.5-4.7,3.3c-1.8,0.8-3.8,1.2-6,1.2H377.9z M346,46.8v22.5h-5.1V41.4c0-1,0.2-1.8,0.7-2.3
	c0.5-0.6,1.2-0.9,2-0.9c0.4,0,0.8,0.1,1.1,0.3c0.4,0.2,0.7,0.4,1.1,0.8l21.7,21.5V38.3h5.1v28.2c0,1-0.2,1.8-0.7,2.4
	c-0.5,0.6-1.1,0.8-1.9,0.8c-0.9,0-1.7-0.4-2.5-1.1L346,46.8z M307.8,61.6h18.8l4.6,7.7h6.5l-17.7-29.4c-0.3-0.5-0.7-1-1.1-1.3
	c-0.4-0.3-0.9-0.5-1.5-0.5c-0.6,0-1.1,0.2-1.5,0.5c-0.4,0.3-0.8,0.7-1.1,1.3l-17.7,29.4h6.1L307.8,61.6z M310.4,57.2l6.8-11.5
	l6.9,11.5H310.4z"/>
<path d="M254.8,46.8v22.5h-5.1V41.4c0-1,0.2-1.8,0.7-2.3c0.5-0.6,1.2-0.9,2-0.9c0.4,0,0.8,0.1,1.1,0.3c0.4,0.2,0.7,0.4,1.1,0.8
	l21.7,21.5V38.3h5.1v28.2c0,1-0.2,1.8-0.7,2.4c-0.5,0.6-1.1,0.8-1.9,0.8c-0.9,0-1.7-0.4-2.5-1.1L254.8,46.8z M230.4,63.9
	c1.4,0,2.7-0.3,3.9-0.8c1.2-0.5,2.2-1.2,3.1-2.1c0.9-0.9,1.5-2,2-3.2c0.5-1.2,0.7-2.6,0.7-4c0-1.4-0.2-2.8-0.7-4
	c-0.5-1.2-1.2-2.3-2-3.1c-0.9-0.9-1.9-1.6-3.1-2.1c-1.2-0.5-2.5-0.7-3.9-0.7h-7.5c-1.4,0-2.7,0.2-3.8,0.7c-1.2,0.5-2.2,1.2-3,2.1
	c-0.8,0.9-1.5,1.9-2,3.1c-0.5,1.2-0.7,2.6-0.7,4c0,1.4,0.2,2.8,0.7,4c0.5,1.2,1.1,2.3,2,3.2c0.8,0.9,1.9,1.6,3,2.1
	c1.2,0.5,2.4,0.8,3.8,0.8H230.4z M222.9,69.3c-2.1,0-4.1-0.4-5.9-1.2c-1.8-0.8-3.4-1.9-4.7-3.3c-1.3-1.4-2.4-3.1-3.1-5
	c-0.7-1.9-1.1-4-1.1-6.2c0-2.3,0.4-4.3,1.1-6.2c0.7-1.9,1.8-3.4,3.1-4.8c1.3-1.3,2.9-2.3,4.7-3c1.8-0.7,3.8-1.1,5.9-1.1h7.5
	c2.2,0,4.3,0.4,6.1,1.1c1.8,0.7,3.4,1.8,4.8,3.1c1.3,1.3,2.4,2.9,3.1,4.8c0.7,1.8,1.1,3.9,1.1,6.1c0,2.2-0.4,4.3-1.1,6.2
	c-0.7,1.9-1.8,3.6-3.1,5c-1.3,1.4-2.9,2.5-4.8,3.3c-1.8,0.8-3.8,1.2-6,1.2H222.9z M197.8,38.6h5.4v30.8h-5.4V38.6z M167.6,69.3V38.6
	h5.4v25.4h20.7v5.4H167.6z M137.7,69.3V38.6h5.4v25.4h20.7v5.4H137.7z M126.7,38.6h5.4v30.8h-5.4V38.6z M117.5,69.3l-5.9-21.6
	l-8.7,20c-0.3,0.6-0.7,1.2-1.1,1.5c-0.4,0.3-1,0.5-1.6,0.5c-1.3,0-2.2-0.7-2.7-2l-8.7-20l-5.9,21.6h-5.3l7.9-28.9
	c0.4-1.5,1.3-2.2,2.7-2.2c0.6,0,1.1,0.2,1.6,0.5c0.5,0.3,0.9,0.8,1.1,1.4l9.5,21.7l9.5-21.7c0.5-1.2,1.4-1.8,2.6-1.8
	c1.3,0,2.2,0.7,2.6,2.2l7.9,28.9H117.5z"/>
</svg>
